<svg xmlns="http://www.w3.org/2000/svg" viewBox="0 0 960 400" font-family="Inter, -apple-system, BlinkMacSystemFont, 'Segoe UI', Roboto, Helvetica, Arial, sans-serif" role="img" aria-label="Horizontal bar chart: UFFS v0.5.120 vs UFFS C++ (MFT re-read) 1.0.0 — 5 / 5 cells faster at p50">
<title>UFFS v0.5.120 vs UFFS C++ (MFT re-read) 1.0.0 — 5 / 5 cells faster at p50</title>
<desc>Horizontal grouped bar chart comparing UFFS and UFFS C++ (MFT re-read) 1.0.0 p50 latency per pattern-by-drive cell. UFFS bars are brand Rust Orange, rival bars are muted Sand. Generated by the uffs-bench suite from cross-tool-summary.csv.</desc>
<rect x="0" y="0" width="960" height="400" fill="#0F0D0B"/>
<rect x="0.5" y="0.5" width="959" height="399" fill="none" stroke="#1E1B18" stroke-width="1"/>
<text x="480" y="36" text-anchor="middle" font-size="19" font-weight="700" fill="#F2EDE8">UFFS v0.5.120 vs UFFS C++ (MFT re-read) 1.0.0 — 5 / 5 cells faster at p50</text>
<text x="480" y="58" text-anchor="middle" font-size="13" fill="#9A8D82">HOT `*` full-scan → CSV per drive scope · UFFS daemon vs full MFT re-read — lower is better</text>
<g transform="translate(300, 78)" font-size="12" fill="#F2EDE8">
<rect x="0" y="2" width="14" height="12" fill="#CE422B"/>
<text x="20" y="12">UFFS v0.5.120</text>
<rect x="180" y="2" width="14" height="12" fill="#9A8D82"/>
<text x="200" y="12">UFFS C++ (MFT re-read) 1.0.0</text>
</g>
<g font-size="11" fill="#9A8D82">
<line x1="160" y1="110" x2="160" y2="330" stroke="#9A8D82" stroke-width="1"/>
<line x1="160" y1="330" x2="840" y2="330" stroke="#9A8D82" stroke-width="1"/>
<text x="160" y="348" text-anchor="middle">0</text>
<line x1="296" y1="110" x2="296" y2="330" stroke="#1E1B18" stroke-width="1"/>
<text x="296" y="348" text-anchor="middle">7.0</text>
<line x1="432" y1="110" x2="432" y2="330" stroke="#1E1B18" stroke-width="1"/>
<text x="432" y="348" text-anchor="middle">14.0</text>
<line x1="568" y1="110" x2="568" y2="330" stroke="#1E1B18" stroke-width="1"/>
<text x="568" y="348" text-anchor="middle">21.0</text>
<line x1="704" y1="110" x2="704" y2="330" stroke="#1E1B18" stroke-width="1"/>
<text x="704" y="348" text-anchor="middle">28.0</text>
<line x1="840" y1="110" x2="840" y2="330" stroke="#1E1B18" stroke-width="1"/>
<text x="840" y="348" text-anchor="middle">35.0</text>
<text x="500" y="370" text-anchor="middle" font-size="11" fill="#9A8D82">p50 latency (seconds) — lower is better</text>
</g>
<g font-size="12" fill="#F2EDE8">
<text x="154" y="132" text-anchor="end">C: full_scan</text>
<rect x="160" y="120" width="30.3" height="16" fill="#CE422B"/>
<rect x="160" y="138" width="154.5" height="16" fill="#9A8D82"/>
<text x="196" y="132" font-size="11" fill="#9A8D82">1.5 s</text>
<text x="320" y="150" font-size="11" fill="#9A8D82">7.9 s</text>
<text x="848" y="141" font-size="12" font-weight="700" fill="#F7B26B">0.19×</text>
</g>
<g font-size="12" fill="#F2EDE8">
<text x="154" y="172" text-anchor="end">D: full_scan</text>
<rect x="160" y="160" width="44.8" height="16" fill="#CE422B"/>
<rect x="160" y="178" width="624.0" height="16" fill="#9A8D82"/>
<text x="210" y="172" font-size="11" fill="#9A8D82">2.3 s</text>
<text x="790" y="190" font-size="11" fill="#9A8D82">32.1 s</text>
<text x="848" y="181" font-size="12" font-weight="700" fill="#F7B26B">0.07×</text>
</g>
<g font-size="12" fill="#F2EDE8">
<text x="154" y="212" text-anchor="end">F: full_scan</text>
<rect x="160" y="200" width="18.5" height="16" fill="#CE422B"/>
<rect x="160" y="218" width="90.8" height="16" fill="#9A8D82"/>
<text x="184" y="212" font-size="11" fill="#9A8D82">0.9 s</text>
<text x="256" y="230" font-size="11" fill="#9A8D82">4.6 s</text>
<text x="848" y="221" font-size="12" font-weight="700" fill="#F7B26B">0.20×</text>
</g>
<g font-size="12" fill="#F2EDE8">
<text x="154" y="252" text-anchor="end">G: full_scan</text>
<rect x="160" y="240" width="0.4" height="16" fill="#CE422B"/>
<rect x="160" y="258" width="4.9" height="16" fill="#9A8D82"/>
<text x="166" y="252" font-size="11" fill="#9A8D82">0.0 s</text>
<text x="170" y="270" font-size="11" fill="#9A8D82">0.2 s</text>
<text x="848" y="261" font-size="12" font-weight="700" fill="#F7B26B">0.09×</text>
</g>
<g font-size="12" fill="#F2EDE8">
<text x="154" y="292" text-anchor="end">C+D+F+G: full_scan</text>
<rect x="160" y="280" width="93.8" height="16" fill="#CE422B"/>
<rect x="160" y="298" width="622.1" height="16" fill="#9A8D82"/>
<text x="259" y="292" font-size="11" fill="#9A8D82">4.8 s</text>
<text x="788" y="310" font-size="11" fill="#9A8D82">32.0 s</text>
<text x="848" y="301" font-size="12" font-weight="700" fill="#F7B26B">0.15×</text>
</g>
<text x="480" y="386" text-anchor="middle" font-size="10" fill="#9A8D82">Generated by the uffs-bench suite from cross-tool-summary.csv (HOT phase, file sink). Lower is better; ratio = UFFS ÷ rival.</text>
</svg>