<svg xmlns="http://www.w3.org/2000/svg" viewBox="0 0 960 1400" font-family="Inter, -apple-system, BlinkMacSystemFont, 'Segoe UI', Roboto, Helvetica, Arial, sans-serif" role="img" aria-label="Horizontal bar chart: UFFS v0.5.120 vs UFFS C++ (MFT re-read) 1.0.0 — 30 / 30 cells faster at p50">
<title>UFFS v0.5.120 vs UFFS C++ (MFT re-read) 1.0.0 — 30 / 30 cells faster at p50</title>
<desc>Horizontal grouped bar chart comparing UFFS and UFFS C++ (MFT re-read) 1.0.0 p50 latency per pattern-by-drive cell. UFFS bars are brand Rust Orange, rival bars are muted Sand. Generated by the uffs-bench suite from cross-tool-summary.csv.</desc>
<rect x="0" y="0" width="960" height="1400" fill="#0F0D0B"/>
<rect x="0.5" y="0.5" width="959" height="1399" fill="none" stroke="#1E1B18" stroke-width="1"/>
<text x="480" y="36" text-anchor="middle" font-size="19" font-weight="700" fill="#F2EDE8">UFFS v0.5.120 vs UFFS C++ (MFT re-read) 1.0.0 — 30 / 30 cells faster at p50</text>
<text x="480" y="58" text-anchor="middle" font-size="13" fill="#9A8D82">HOT phase · file sink · p50 per (drive, pattern) cell — lower is better</text>
<g transform="translate(300, 78)" font-size="12" fill="#F2EDE8">
<rect x="0" y="2" width="14" height="12" fill="#CE422B"/>
<text x="20" y="12">UFFS v0.5.120</text>
<rect x="180" y="2" width="14" height="12" fill="#9A8D82"/>
<text x="200" y="12">UFFS C++ (MFT re-read) 1.0.0</text>
</g>
<g font-size="11" fill="#9A8D82">
<line x1="160" y1="110" x2="160" y2="1330" stroke="#9A8D82" stroke-width="1"/>
<line x1="160" y1="1330" x2="840" y2="1330" stroke="#9A8D82" stroke-width="1"/>
<text x="160" y="1348" text-anchor="middle">0</text>
<line x1="296" y1="110" x2="296" y2="1330" stroke="#1E1B18" stroke-width="1"/>
<text x="296" y="1348" text-anchor="middle">26270</text>
<line x1="432" y1="110" x2="432" y2="1330" stroke="#1E1B18" stroke-width="1"/>
<text x="432" y="1348" text-anchor="middle">52540</text>
<line x1="568" y1="110" x2="568" y2="1330" stroke="#1E1B18" stroke-width="1"/>
<text x="568" y="1348" text-anchor="middle">78810</text>
<line x1="704" y1="110" x2="704" y2="1330" stroke="#1E1B18" stroke-width="1"/>
<text x="704" y="1348" text-anchor="middle">105080</text>
<line x1="840" y1="110" x2="840" y2="1330" stroke="#1E1B18" stroke-width="1"/>
<text x="840" y="1348" text-anchor="middle">131350</text>
<text x="500" y="1370" text-anchor="middle" font-size="11" fill="#9A8D82">p50 latency (milliseconds) — lower is better</text>
</g>
<g font-size="12" fill="#F2EDE8">
<text x="154" y="132" text-anchor="end">C: full_scan</text>
<rect x="160" y="120" width="8.0" height="16" fill="#CE422B"/>
<rect x="160" y="138" width="41.1" height="16" fill="#9A8D82"/>
<text x="174" y="132" font-size="11" fill="#9A8D82">1561 ms</text>
<text x="207" y="150" font-size="11" fill="#9A8D82">7953 ms</text>
<text x="848" y="141" font-size="12" font-weight="700" fill="#F7B26B">0.19×</text>
</g>
<g font-size="12" fill="#F2EDE8">
<text x="154" y="172" text-anchor="end">C: exact</text>
<rect x="160" y="160" width="0.1" height="16" fill="#CE422B"/>
<rect x="160" y="178" width="18.8" height="16" fill="#9A8D82"/>
<text x="166" y="172" font-size="11" fill="#9A8D82">20 ms</text>
<text x="184" y="190" font-size="11" fill="#9A8D82">3640 ms</text>
<text x="848" y="181" font-size="12" font-weight="700" fill="#F7B26B">0.00×</text>
</g>
<g font-size="12" fill="#F2EDE8">
<text x="154" y="212" text-anchor="end">C: ext_rare</text>
<rect x="160" y="200" width="0.0" height="16" fill="#CE422B"/>
<rect x="160" y="218" width="59.3" height="16" fill="#9A8D82"/>
<text x="166" y="212" font-size="11" fill="#9A8D82">19 ms</text>
<text x="225" y="230" font-size="11" fill="#9A8D82">11471 ms</text>
<text x="848" y="221" font-size="12" font-weight="700" fill="#F7B26B">0.00×</text>
</g>
<g font-size="12" fill="#F2EDE8">
<text x="154" y="252" text-anchor="end">C: ext_dll</text>
<rect x="160" y="240" width="0.4" height="16" fill="#CE422B"/>
<rect x="160" y="258" width="60.7" height="16" fill="#9A8D82"/>
<text x="166" y="252" font-size="11" fill="#9A8D82">96 ms</text>
<text x="226" y="270" font-size="11" fill="#9A8D82">11733 ms</text>
<text x="848" y="261" font-size="12" font-weight="700" fill="#F7B26B">0.00×</text>
</g>
<g font-size="12" fill="#F2EDE8">
<text x="154" y="292" text-anchor="end">C: ext_regex_alt</text>
<rect x="160" y="280" width="0.1" height="16" fill="#CE422B"/>
<rect x="160" y="298" width="192.8" height="16" fill="#9A8D82"/>
<text x="166" y="292" font-size="11" fill="#9A8D82">30 ms</text>
<text x="358" y="310" font-size="11" fill="#9A8D82">37250 ms</text>
<text x="848" y="301" font-size="12" font-weight="700" fill="#F7B26B">0.00×</text>
</g>
<g font-size="12" fill="#F2EDE8">
<text x="154" y="332" text-anchor="end">C: substring</text>
<rect x="160" y="320" width="0.2" height="16" fill="#CE422B"/>
<rect x="160" y="338" width="16.6" height="16" fill="#9A8D82"/>
<text x="166" y="332" font-size="11" fill="#9A8D82">39 ms</text>
<text x="182" y="350" font-size="11" fill="#9A8D82">3217 ms</text>
<text x="848" y="341" font-size="12" font-weight="700" fill="#F7B26B">0.01×</text>
</g>
<g font-size="12" fill="#F2EDE8">
<text x="154" y="372" text-anchor="end">D: full_scan</text>
<rect x="160" y="360" width="11.9" height="16" fill="#CE422B"/>
<rect x="160" y="378" width="166.2" height="16" fill="#9A8D82"/>
<text x="177" y="372" font-size="11" fill="#9A8D82">2308 ms</text>
<text x="332" y="390" font-size="11" fill="#9A8D82">32120 ms</text>
<text x="848" y="381" font-size="12" font-weight="700" fill="#F7B26B">0.07×</text>
</g>
<g font-size="12" fill="#F2EDE8">
<text x="154" y="412" text-anchor="end">D: exact</text>
<rect x="160" y="400" width="0.1" height="16" fill="#CE422B"/>
<rect x="160" y="418" width="119.4" height="16" fill="#9A8D82"/>
<text x="166" y="412" font-size="11" fill="#9A8D82">20 ms</text>
<text x="285" y="430" font-size="11" fill="#9A8D82">23075 ms</text>
<text x="848" y="421" font-size="12" font-weight="700" fill="#F7B26B">0.00×</text>
</g>
<g font-size="12" fill="#F2EDE8">
<text x="154" y="452" text-anchor="end">D: ext_rare</text>
<rect x="160" y="440" width="0.0" height="16" fill="#CE422B"/>
<rect x="160" y="458" width="200.4" height="16" fill="#9A8D82"/>
<text x="166" y="452" font-size="11" fill="#9A8D82">19 ms</text>
<text x="366" y="470" font-size="11" fill="#9A8D82">38725 ms</text>
<text x="848" y="461" font-size="12" font-weight="700" fill="#F7B26B">0.00×</text>
</g>
<g font-size="12" fill="#F2EDE8">
<text x="154" y="492" text-anchor="end">D: ext_dll</text>
<rect x="160" y="480" width="0.1" height="16" fill="#CE422B"/>
<rect x="160" y="498" width="200.5" height="16" fill="#9A8D82"/>
<text x="166" y="492" font-size="11" fill="#9A8D82">37 ms</text>
<text x="366" y="510" font-size="11" fill="#9A8D82">38748 ms</text>
<text x="848" y="501" font-size="12" font-weight="700" fill="#F7B26B">0.00×</text>
</g>
<g font-size="12" fill="#F2EDE8">
<text x="154" y="532" text-anchor="end">D: ext_regex_alt</text>
<rect x="160" y="520" width="0.1" height="16" fill="#CE422B"/>
<rect x="160" y="538" width="463.9" height="16" fill="#9A8D82"/>
<text x="166" y="532" font-size="11" fill="#9A8D82">26 ms</text>
<text x="629" y="550" font-size="11" fill="#9A8D82">89625 ms</text>
<text x="848" y="541" font-size="12" font-weight="700" fill="#F7B26B">0.00×</text>
</g>
<g font-size="12" fill="#F2EDE8">
<text x="154" y="572" text-anchor="end">D: substring</text>
<rect x="160" y="560" width="0.1" height="16" fill="#CE422B"/>
<rect x="160" y="578" width="115.0" height="16" fill="#9A8D82"/>
<text x="166" y="572" font-size="11" fill="#9A8D82">35 ms</text>
<text x="281" y="590" font-size="11" fill="#9A8D82">22220 ms</text>
<text x="848" y="581" font-size="12" font-weight="700" fill="#F7B26B">0.00×</text>
</g>
<g font-size="12" fill="#F2EDE8">
<text x="154" y="612" text-anchor="end">F: full_scan</text>
<rect x="160" y="600" width="4.9" height="16" fill="#CE422B"/>
<rect x="160" y="618" width="24.2" height="16" fill="#9A8D82"/>
<text x="170" y="612" font-size="11" fill="#9A8D82">957 ms</text>
<text x="190" y="630" font-size="11" fill="#9A8D82">4675 ms</text>
<text x="848" y="621" font-size="12" font-weight="700" fill="#F7B26B">0.20×</text>
</g>
<g font-size="12" fill="#F2EDE8">
<text x="154" y="652" text-anchor="end">F: exact</text>
<rect x="160" y="640" width="0.0" height="16" fill="#CE422B"/>
<rect x="160" y="658" width="10.8" height="16" fill="#9A8D82"/>
<text x="166" y="652" font-size="11" fill="#9A8D82">19 ms</text>
<text x="176" y="670" font-size="11" fill="#9A8D82">2100 ms</text>
<text x="848" y="661" font-size="12" font-weight="700" fill="#F7B26B">0.00×</text>
</g>
<g font-size="12" fill="#F2EDE8">
<text x="154" y="692" text-anchor="end">F: ext_rare</text>
<rect x="160" y="680" width="0.0" height="16" fill="#CE422B"/>
<rect x="160" y="698" width="35.0" height="16" fill="#9A8D82"/>
<text x="166" y="692" font-size="11" fill="#9A8D82">19 ms</text>
<text x="201" y="710" font-size="11" fill="#9A8D82">6772 ms</text>
<text x="848" y="701" font-size="12" font-weight="700" fill="#F7B26B">0.00×</text>
</g>
<g font-size="12" fill="#F2EDE8">
<text x="154" y="732" text-anchor="end">F: ext_dll</text>
<rect x="160" y="720" width="0.4" height="16" fill="#CE422B"/>
<rect x="160" y="738" width="36.1" height="16" fill="#9A8D82"/>
<text x="166" y="732" font-size="11" fill="#9A8D82">87 ms</text>
<text x="202" y="750" font-size="11" fill="#9A8D82">6991 ms</text>
<text x="848" y="741" font-size="12" font-weight="700" fill="#F7B26B">0.01×</text>
</g>
<g font-size="12" fill="#F2EDE8">
<text x="154" y="772" text-anchor="end">F: ext_regex_alt</text>
<rect x="160" y="760" width="0.1" height="16" fill="#CE422B"/>
<rect x="160" y="778" width="113.6" height="16" fill="#9A8D82"/>
<text x="166" y="772" font-size="11" fill="#9A8D82">26 ms</text>
<text x="279" y="790" font-size="11" fill="#9A8D82">21960 ms</text>
<text x="848" y="781" font-size="12" font-weight="700" fill="#F7B26B">0.00×</text>
</g>
<g font-size="12" fill="#F2EDE8">
<text x="154" y="812" text-anchor="end">F: substring</text>
<rect x="160" y="800" width="0.1" height="16" fill="#CE422B"/>
<rect x="160" y="818" width="9.6" height="16" fill="#9A8D82"/>
<text x="166" y="812" font-size="11" fill="#9A8D82">35 ms</text>
<text x="175" y="830" font-size="11" fill="#9A8D82">1870 ms</text>
<text x="848" y="821" font-size="12" font-weight="700" fill="#F7B26B">0.01×</text>
</g>
<g font-size="12" fill="#F2EDE8">
<text x="154" y="852" text-anchor="end">G: full_scan</text>
<rect x="160" y="840" width="0.1" height="16" fill="#CE422B"/>
<rect x="160" y="858" width="1.3" height="16" fill="#9A8D82"/>
<text x="166" y="852" font-size="11" fill="#9A8D82">24 ms</text>
<text x="167" y="870" font-size="11" fill="#9A8D82">254 ms</text>
<text x="848" y="861" font-size="12" font-weight="700" fill="#F7B26B">0.09×</text>
</g>
<g font-size="12" fill="#F2EDE8">
<text x="154" y="892" text-anchor="end">G: exact</text>
<rect x="160" y="880" width="0.0" height="16" fill="#CE422B"/>
<rect x="160" y="898" width="1.2" height="16" fill="#9A8D82"/>
<text x="166" y="892" font-size="11" fill="#9A8D82">17 ms</text>
<text x="167" y="910" font-size="11" fill="#9A8D82">244 ms</text>
<text x="848" y="901" font-size="12" font-weight="700" fill="#F7B26B">0.06×</text>
</g>
<g font-size="12" fill="#F2EDE8">
<text x="154" y="932" text-anchor="end">G: ext_rare</text>
<rect x="160" y="920" width="0.0" height="16" fill="#CE422B"/>
<rect x="160" y="938" width="1.3" height="16" fill="#9A8D82"/>
<text x="166" y="932" font-size="11" fill="#9A8D82">18 ms</text>
<text x="167" y="950" font-size="11" fill="#9A8D82">256 ms</text>
<text x="848" y="941" font-size="12" font-weight="700" fill="#F7B26B">0.07×</text>
</g>
<g font-size="12" fill="#F2EDE8">
<text x="154" y="972" text-anchor="end">G: ext_dll</text>
<rect x="160" y="960" width="0.0" height="16" fill="#CE422B"/>
<rect x="160" y="978" width="1.3" height="16" fill="#9A8D82"/>
<text x="166" y="972" font-size="11" fill="#9A8D82">18 ms</text>
<text x="167" y="990" font-size="11" fill="#9A8D82">257 ms</text>
<text x="848" y="981" font-size="12" font-weight="700" fill="#F7B26B">0.07×</text>
</g>
<g font-size="12" fill="#F2EDE8">
<text x="154" y="1012" text-anchor="end">G: ext_regex_alt</text>
<rect x="160" y="1000" width="0.0" height="16" fill="#CE422B"/>
<rect x="160" y="1018" width="1.5" height="16" fill="#9A8D82"/>
<text x="166" y="1012" font-size="11" fill="#9A8D82">17 ms</text>
<text x="167" y="1030" font-size="11" fill="#9A8D82">297 ms</text>
<text x="848" y="1021" font-size="12" font-weight="700" fill="#F7B26B">0.05×</text>
</g>
<g font-size="12" fill="#F2EDE8">
<text x="154" y="1052" text-anchor="end">G: substring</text>
<rect x="160" y="1040" width="0.0" height="16" fill="#CE422B"/>
<rect x="160" y="1058" width="1.2" height="16" fill="#9A8D82"/>
<text x="166" y="1052" font-size="11" fill="#9A8D82">17 ms</text>
<text x="167" y="1070" font-size="11" fill="#9A8D82">240 ms</text>
<text x="848" y="1061" font-size="12" font-weight="700" fill="#F7B26B">0.07×</text>
</g>
<g font-size="12" fill="#F2EDE8">
<text x="154" y="1092" text-anchor="end">C+D+F+G: full_scan</text>
<rect x="160" y="1080" width="25.0" height="16" fill="#CE422B"/>
<rect x="160" y="1098" width="165.7" height="16" fill="#9A8D82"/>
<text x="191" y="1092" font-size="11" fill="#9A8D82">4833 ms</text>
<text x="331" y="1110" font-size="11" fill="#9A8D82">32023 ms</text>
<text x="848" y="1101" font-size="12" font-weight="700" fill="#F7B26B">0.15×</text>
</g>
<g font-size="12" fill="#F2EDE8">
<text x="154" y="1132" text-anchor="end">C+D+F+G: exact</text>
<rect x="160" y="1120" width="0.1" height="16" fill="#CE422B"/>
<rect x="160" y="1138" width="120.5" height="16" fill="#9A8D82"/>
<text x="166" y="1132" font-size="11" fill="#9A8D82">21 ms</text>
<text x="286" y="1150" font-size="11" fill="#9A8D82">23290 ms</text>
<text x="848" y="1141" font-size="12" font-weight="700" fill="#F7B26B">0.00×</text>
</g>
<g font-size="12" fill="#F2EDE8">
<text x="154" y="1172" text-anchor="end">C+D+F+G: ext_rare</text>
<rect x="160" y="1160" width="0.1" height="16" fill="#CE422B"/>
<rect x="160" y="1178" width="207.2" height="16" fill="#9A8D82"/>
<text x="166" y="1172" font-size="11" fill="#9A8D82">20 ms</text>
<text x="373" y="1190" font-size="11" fill="#9A8D82">40042 ms</text>
<text x="848" y="1181" font-size="12" font-weight="700" fill="#F7B26B">0.00×</text>
</g>
<g font-size="12" fill="#F2EDE8">
<text x="154" y="1212" text-anchor="end">C+D+F+G: ext_dll</text>
<rect x="160" y="1200" width="0.9" height="16" fill="#CE422B"/>
<rect x="160" y="1218" width="208.8" height="16" fill="#9A8D82"/>
<text x="166" y="1212" font-size="11" fill="#9A8D82">181 ms</text>
<text x="374" y="1230" font-size="11" fill="#9A8D82">40345 ms</text>
<text x="848" y="1221" font-size="12" font-weight="700" fill="#F7B26B">0.00×</text>
</g>
<g font-size="12" fill="#F2EDE8">
<text x="154" y="1252" text-anchor="end">C+D+F+G: ext_regex_alt</text>
<rect x="160" y="1240" width="0.2" height="16" fill="#CE422B"/>
<rect x="160" y="1258" width="679.9" height="16" fill="#9A8D82"/>
<text x="166" y="1252" font-size="11" fill="#9A8D82">43 ms</text>
<text x="845" y="1270" font-size="11" fill="#9A8D82">131335 ms</text>
<text x="848" y="1261" font-size="12" font-weight="700" fill="#F7B26B">0.00×</text>
</g>
<g font-size="12" fill="#F2EDE8">
<text x="154" y="1292" text-anchor="end">C+D+F+G: substring</text>
<rect x="160" y="1280" width="0.3" height="16" fill="#CE422B"/>
<rect x="160" y="1298" width="115.8" height="16" fill="#9A8D82"/>
<text x="166" y="1292" font-size="11" fill="#9A8D82">69 ms</text>
<text x="281" y="1310" font-size="11" fill="#9A8D82">22375 ms</text>
<text x="848" y="1301" font-size="12" font-weight="700" fill="#F7B26B">0.00×</text>
</g>
<text x="480" y="1386" text-anchor="middle" font-size="10" fill="#9A8D82">Generated by the uffs-bench suite from cross-tool-summary.csv (HOT phase, file sink). Lower is better; ratio = UFFS ÷ rival.</text>
</svg>