<svg xmlns="http://www.w3.org/2000/svg" viewBox="0 0 960 370" font-family="Inter, -apple-system, BlinkMacSystemFont, 'Segoe UI', Roboto, Helvetica, Arial, sans-serif" role="img" aria-label="Bar chart: UFFS v0.5.120 full-scan export — the workload Everything cannot run">
<title>UFFS v0.5.120 full-scan export — the workload Everything cannot run</title>
<desc>Bar chart of UFFS full-scan CSV-export wall time per drive scope, with row counts and sustained records-per-second callouts. Generated by the uffs-bench suite from cross-tool-summary.csv.</desc>
<rect x="0" y="0" width="960" height="370" fill="#0F0D0B"/>
<rect x="0.5" y="0.5" width="959" height="369" fill="none" stroke="#1E1B18" stroke-width="1"/>
<text x="480" y="36" text-anchor="middle" font-size="19" font-weight="700" fill="#F2EDE8">UFFS v0.5.120 full-scan export — the workload Everything cannot run</text>
<text x="480" y="58" text-anchor="middle" font-size="13" fill="#9A8D82">complete `*` result set streamed from the daemon to CSV</text>
<g font-size="11" fill="#9A8D82">
<line x1="160" y1="100" x2="160" y2="300" stroke="#9A8D82" stroke-width="1"/>
<line x1="160" y1="300" x2="840" y2="300" stroke="#9A8D82" stroke-width="1"/>
<text x="160" y="318" text-anchor="middle">0</text>
<line x1="296" y1="100" x2="296" y2="300" stroke="#1E1B18" stroke-width="1"/>
<text x="296" y="318" text-anchor="middle">1.0</text>
<line x1="432" y1="100" x2="432" y2="300" stroke="#1E1B18" stroke-width="1"/>
<text x="432" y="318" text-anchor="middle">2.0</text>
<line x1="568" y1="100" x2="568" y2="300" stroke="#1E1B18" stroke-width="1"/>
<text x="568" y="318" text-anchor="middle">3.0</text>
<line x1="704" y1="100" x2="704" y2="300" stroke="#1E1B18" stroke-width="1"/>
<text x="704" y="318" text-anchor="middle">4.0</text>
<line x1="840" y1="100" x2="840" y2="300" stroke="#1E1B18" stroke-width="1"/>
<text x="840" y="318" text-anchor="middle">5.0</text>
<text x="500" y="340" text-anchor="middle" font-size="11" fill="#9A8D82">`*` → CSV wall time (seconds, p50) — lower is better</text>
</g>
<g font-size="12" fill="#F2EDE8">
<text x="154" y="133" text-anchor="end">C:</text>
<rect x="160" y="120" width="212.2" height="18" fill="#CE422B"/>
<text x="378" y="133" font-size="11" fill="#9A8D82">1.5 s · 3,295,681 rows</text>
<text x="848" y="133" font-size="12" font-weight="700" fill="#F7B26B">2.1 M rec/s</text>
</g>
<g font-size="12" fill="#F2EDE8">
<text x="154" y="167" text-anchor="end">D:</text>
<rect x="160" y="154" width="313.8" height="18" fill="#CE422B"/>
<text x="479" y="167" font-size="11" fill="#9A8D82">2.3 s · 4,772,520 rows</text>
<text x="848" y="167" font-size="12" font-weight="700" fill="#F7B26B">2.0 M rec/s</text>
</g>
<g font-size="12" fill="#F2EDE8">
<text x="154" y="201" text-anchor="end">F:</text>
<rect x="160" y="188" width="130.1" height="18" fill="#CE422B"/>
<text x="296" y="201" font-size="11" fill="#9A8D82">0.9 s · 2,124,007 rows</text>
<text x="848" y="201" font-size="12" font-weight="700" fill="#F7B26B">2.2 M rec/s</text>
</g>
<g font-size="12" fill="#F2EDE8">
<text x="154" y="235" text-anchor="end">G:</text>
<rect x="160" y="222" width="3.2" height="18" fill="#CE422B"/>
<text x="169" y="235" font-size="11" fill="#9A8D82">0.0 s · 15,126 rows</text>
<text x="848" y="235" font-size="12" font-weight="700" fill="#F7B26B">630 K rec/s</text>
</g>
<g font-size="12" fill="#F2EDE8">
<text x="154" y="269" text-anchor="end">C+D+F+G:</text>
<rect x="160" y="256" width="657.2" height="18" fill="#CE422B"/>
<text x="823" y="269" font-size="11" fill="#9A8D82">4.8 s · 10,207,863 rows</text>
<text x="848" y="269" font-size="12" font-weight="700" fill="#F7B26B">2.1 M rec/s</text>
</g>
<text x="480" y="356" text-anchor="middle" font-size="10" fill="#9A8D82">Generated by the uffs-bench suite from cross-tool-summary.csv (HOT phase, file sink). es.exe -export-csv aborts near ~2 GB over IPC, so this workload is UFFS-only.</text>
</svg>