<svg xmlns="http://www.w3.org/2000/svg" viewBox="0 0 960 1400" font-family="Inter, -apple-system, BlinkMacSystemFont, 'Segoe UI', Roboto, Helvetica, Arial, sans-serif" role="img" aria-label="Horizontal bar chart: UFFS v0.5.120 vs Everything 1.4.1.1032 — 30 / 30 cells faster at p50">
<title>UFFS v0.5.120 vs Everything 1.4.1.1032 — 30 / 30 cells faster at p50</title>
<desc>Horizontal grouped bar chart comparing UFFS and Everything 1.4.1.1032 p50 latency per pattern-by-drive cell. UFFS bars are brand Rust Orange, rival bars are muted Sand. Generated by the uffs-bench suite from cross-tool-summary.csv.</desc>
<rect x="0" y="0" width="960" height="1400" fill="#0F0D0B"/>
<rect x="0.5" y="0.5" width="959" height="1399" fill="none" stroke="#1E1B18" stroke-width="1"/>
<text x="480" y="36" text-anchor="middle" font-size="19" font-weight="700" fill="#F2EDE8">UFFS v0.5.120 vs Everything 1.4.1.1032 — 30 / 30 cells faster at p50</text>
<text x="480" y="58" text-anchor="middle" font-size="13" fill="#9A8D82">HOT phase · file sink · p50 per (drive, pattern) cell — lower is better</text>
<g transform="translate(300, 78)" font-size="12" fill="#F2EDE8">
<rect x="0" y="2" width="14" height="12" fill="#CE422B"/>
<text x="20" y="12">UFFS v0.5.120</text>
<rect x="180" y="2" width="14" height="12" fill="#9A8D82"/>
<text x="200" y="12">Everything 1.4.1.1032</text>
</g>
<g font-size="11" fill="#9A8D82">
<line x1="160" y1="110" x2="160" y2="1330" stroke="#9A8D82" stroke-width="1"/>
<line x1="160" y1="1330" x2="840" y2="1330" stroke="#9A8D82" stroke-width="1"/>
<text x="160" y="1348" text-anchor="middle">0</text>
<line x1="296" y1="110" x2="296" y2="1330" stroke="#1E1B18" stroke-width="1"/>
<text x="296" y="1348" text-anchor="middle">100</text>
<line x1="432" y1="110" x2="432" y2="1330" stroke="#1E1B18" stroke-width="1"/>
<text x="432" y="1348" text-anchor="middle">200</text>
<line x1="568" y1="110" x2="568" y2="1330" stroke="#1E1B18" stroke-width="1"/>
<text x="568" y="1348" text-anchor="middle">300</text>
<line x1="704" y1="110" x2="704" y2="1330" stroke="#1E1B18" stroke-width="1"/>
<text x="704" y="1348" text-anchor="middle">400</text>
<line x1="840" y1="110" x2="840" y2="1330" stroke="#1E1B18" stroke-width="1"/>
<text x="840" y="1348" text-anchor="middle">500</text>
<text x="500" y="1370" text-anchor="middle" font-size="11" fill="#9A8D82">p50 latency (milliseconds) — lower is better</text>
</g>
<g font-size="12" fill="#F2EDE8">
<text x="154" y="132" text-anchor="end">C: exact</text>
<rect x="160" y="120" width="27.2" height="16" fill="#CE422B"/>
<rect x="160" y="138" width="93.8" height="16" fill="#9A8D82"/>
<text x="193" y="132" font-size="11" fill="#9A8D82">20 ms</text>
<text x="259" y="150" font-size="11" fill="#9A8D82">69 ms</text>
<text x="848" y="141" font-size="12" font-weight="700" fill="#F7B26B">0.28×</text>
</g>
<g font-size="12" fill="#F2EDE8">
<text x="154" y="172" text-anchor="end">C: prefix</text>
<rect x="160" y="160" width="108.8" height="16" fill="#CE422B"/>
<rect x="160" y="178" width="138.7" height="16" fill="#9A8D82"/>
<text x="274" y="172" font-size="11" fill="#9A8D82">80 ms</text>
<text x="304" y="190" font-size="11" fill="#9A8D82">102 ms</text>
<text x="848" y="181" font-size="12" font-weight="700" fill="#F7B26B">0.78×</text>
</g>
<g font-size="12" fill="#F2EDE8">
<text x="154" y="212" text-anchor="end">C: ext_rare</text>
<rect x="160" y="200" width="25.8" height="16" fill="#CE422B"/>
<rect x="160" y="218" width="80.2" height="16" fill="#9A8D82"/>
<text x="191" y="212" font-size="11" fill="#9A8D82">19 ms</text>
<text x="246" y="230" font-size="11" fill="#9A8D82">59 ms</text>
<text x="848" y="221" font-size="12" font-weight="700" fill="#F7B26B">0.32×</text>
</g>
<g font-size="12" fill="#F2EDE8">
<text x="154" y="252" text-anchor="end">C: ext_dll</text>
<rect x="160" y="240" width="130.5" height="16" fill="#CE422B"/>
<rect x="160" y="258" width="322.3" height="16" fill="#9A8D82"/>
<text x="296" y="252" font-size="11" fill="#9A8D82">96 ms</text>
<text x="488" y="270" font-size="11" fill="#9A8D82">237 ms</text>
<text x="848" y="261" font-size="12" font-weight="700" fill="#F7B26B">0.40×</text>
</g>
<g font-size="12" fill="#F2EDE8">
<text x="154" y="292" text-anchor="end">C: ext_regex_alt</text>
<rect x="160" y="280" width="40.8" height="16" fill="#CE422B"/>
<rect x="160" y="298" width="111.5" height="16" fill="#9A8D82"/>
<text x="206" y="292" font-size="11" fill="#9A8D82">30 ms</text>
<text x="277" y="310" font-size="11" fill="#9A8D82">82 ms</text>
<text x="848" y="301" font-size="12" font-weight="700" fill="#F7B26B">0.36×</text>
</g>
<g font-size="12" fill="#F2EDE8">
<text x="154" y="332" text-anchor="end">C: substring</text>
<rect x="160" y="320" width="53.0" height="16" fill="#CE422B"/>
<rect x="160" y="338" width="142.8" height="16" fill="#9A8D82"/>
<text x="219" y="332" font-size="11" fill="#9A8D82">39 ms</text>
<text x="308" y="350" font-size="11" fill="#9A8D82">105 ms</text>
<text x="848" y="341" font-size="12" font-weight="700" fill="#F7B26B">0.37×</text>
</g>
<g font-size="12" fill="#F2EDE8">
<text x="154" y="372" text-anchor="end">D: exact</text>
<rect x="160" y="360" width="27.2" height="16" fill="#CE422B"/>
<rect x="160" y="378" width="91.1" height="16" fill="#9A8D82"/>
<text x="193" y="372" font-size="11" fill="#9A8D82">20 ms</text>
<text x="257" y="390" font-size="11" fill="#9A8D82">67 ms</text>
<text x="848" y="381" font-size="12" font-weight="700" fill="#F7B26B">0.29×</text>
</g>
<g font-size="12" fill="#F2EDE8">
<text x="154" y="412" text-anchor="end">D: prefix</text>
<rect x="160" y="400" width="53.0" height="16" fill="#CE422B"/>
<rect x="160" y="418" width="102.0" height="16" fill="#9A8D82"/>
<text x="219" y="412" font-size="11" fill="#9A8D82">39 ms</text>
<text x="268" y="430" font-size="11" fill="#9A8D82">75 ms</text>
<text x="848" y="421" font-size="12" font-weight="700" fill="#F7B26B">0.52×</text>
</g>
<g font-size="12" fill="#F2EDE8">
<text x="154" y="452" text-anchor="end">D: ext_rare</text>
<rect x="160" y="440" width="25.8" height="16" fill="#CE422B"/>
<rect x="160" y="458" width="82.9" height="16" fill="#9A8D82"/>
<text x="191" y="452" font-size="11" fill="#9A8D82">19 ms</text>
<text x="248" y="470" font-size="11" fill="#9A8D82">61 ms</text>
<text x="848" y="461" font-size="12" font-weight="700" fill="#F7B26B">0.31×</text>
</g>
<g font-size="12" fill="#F2EDE8">
<text x="154" y="492" text-anchor="end">D: ext_dll</text>
<rect x="160" y="480" width="50.3" height="16" fill="#CE422B"/>
<rect x="160" y="498" width="159.1" height="16" fill="#9A8D82"/>
<text x="216" y="492" font-size="11" fill="#9A8D82">37 ms</text>
<text x="325" y="510" font-size="11" fill="#9A8D82">117 ms</text>
<text x="848" y="501" font-size="12" font-weight="700" fill="#F7B26B">0.31×</text>
</g>
<g font-size="12" fill="#F2EDE8">
<text x="154" y="532" text-anchor="end">D: ext_regex_alt</text>
<rect x="160" y="520" width="35.3" height="16" fill="#CE422B"/>
<rect x="160" y="538" width="100.6" height="16" fill="#9A8D82"/>
<text x="201" y="532" font-size="11" fill="#9A8D82">26 ms</text>
<text x="266" y="550" font-size="11" fill="#9A8D82">74 ms</text>
<text x="848" y="541" font-size="12" font-weight="700" fill="#F7B26B">0.35×</text>
</g>
<g font-size="12" fill="#F2EDE8">
<text x="154" y="572" text-anchor="end">D: substring</text>
<rect x="160" y="560" width="47.6" height="16" fill="#CE422B"/>
<rect x="160" y="578" width="115.6" height="16" fill="#9A8D82"/>
<text x="213" y="572" font-size="11" fill="#9A8D82">35 ms</text>
<text x="281" y="590" font-size="11" fill="#9A8D82">85 ms</text>
<text x="848" y="581" font-size="12" font-weight="700" fill="#F7B26B">0.41×</text>
</g>
<g font-size="12" fill="#F2EDE8">
<text x="154" y="612" text-anchor="end">F: exact</text>
<rect x="160" y="600" width="25.8" height="16" fill="#CE422B"/>
<rect x="160" y="618" width="84.3" height="16" fill="#9A8D82"/>
<text x="191" y="612" font-size="11" fill="#9A8D82">19 ms</text>
<text x="250" y="630" font-size="11" fill="#9A8D82">62 ms</text>
<text x="848" y="621" font-size="12" font-weight="700" fill="#F7B26B">0.30×</text>
</g>
<g font-size="12" fill="#F2EDE8">
<text x="154" y="652" text-anchor="end">F: prefix</text>
<rect x="160" y="640" width="80.2" height="16" fill="#CE422B"/>
<rect x="160" y="658" width="127.8" height="16" fill="#9A8D82"/>
<text x="246" y="652" font-size="11" fill="#9A8D82">59 ms</text>
<text x="293" y="670" font-size="11" fill="#9A8D82">94 ms</text>
<text x="848" y="661" font-size="12" font-weight="700" fill="#F7B26B">0.62×</text>
</g>
<g font-size="12" fill="#F2EDE8">
<text x="154" y="692" text-anchor="end">F: ext_rare</text>
<rect x="160" y="680" width="25.8" height="16" fill="#CE422B"/>
<rect x="160" y="698" width="81.6" height="16" fill="#9A8D82"/>
<text x="191" y="692" font-size="11" fill="#9A8D82">19 ms</text>
<text x="247" y="710" font-size="11" fill="#9A8D82">60 ms</text>
<text x="848" y="701" font-size="12" font-weight="700" fill="#F7B26B">0.31×</text>
</g>
<g font-size="12" fill="#F2EDE8">
<text x="154" y="732" text-anchor="end">F: ext_dll</text>
<rect x="160" y="720" width="118.3" height="16" fill="#CE422B"/>
<rect x="160" y="738" width="300.5" height="16" fill="#9A8D82"/>
<text x="284" y="732" font-size="11" fill="#9A8D82">87 ms</text>
<text x="466" y="750" font-size="11" fill="#9A8D82">221 ms</text>
<text x="848" y="741" font-size="12" font-weight="700" fill="#F7B26B">0.39×</text>
</g>
<g font-size="12" fill="#F2EDE8">
<text x="154" y="772" text-anchor="end">F: ext_regex_alt</text>
<rect x="160" y="760" width="35.3" height="16" fill="#CE422B"/>
<rect x="160" y="778" width="99.2" height="16" fill="#9A8D82"/>
<text x="201" y="772" font-size="11" fill="#9A8D82">26 ms</text>
<text x="265" y="790" font-size="11" fill="#9A8D82">73 ms</text>
<text x="848" y="781" font-size="12" font-weight="700" fill="#F7B26B">0.35×</text>
</g>
<g font-size="12" fill="#F2EDE8">
<text x="154" y="812" text-anchor="end">F: substring</text>
<rect x="160" y="800" width="47.6" height="16" fill="#CE422B"/>
<rect x="160" y="818" width="123.7" height="16" fill="#9A8D82"/>
<text x="213" y="812" font-size="11" fill="#9A8D82">35 ms</text>
<text x="289" y="830" font-size="11" fill="#9A8D82">91 ms</text>
<text x="848" y="821" font-size="12" font-weight="700" fill="#F7B26B">0.38×</text>
</g>
<g font-size="12" fill="#F2EDE8">
<text x="154" y="852" text-anchor="end">G: exact</text>
<rect x="160" y="840" width="23.1" height="16" fill="#CE422B"/>
<rect x="160" y="858" width="82.9" height="16" fill="#9A8D82"/>
<text x="189" y="852" font-size="11" fill="#9A8D82">17 ms</text>
<text x="248" y="870" font-size="11" fill="#9A8D82">61 ms</text>
<text x="848" y="861" font-size="12" font-weight="700" fill="#F7B26B">0.27×</text>
</g>
<g font-size="12" fill="#F2EDE8">
<text x="154" y="892" text-anchor="end">G: prefix</text>
<rect x="160" y="880" width="24.4" height="16" fill="#CE422B"/>
<rect x="160" y="898" width="78.8" height="16" fill="#9A8D82"/>
<text x="190" y="892" font-size="11" fill="#9A8D82">18 ms</text>
<text x="244" y="910" font-size="11" fill="#9A8D82">58 ms</text>
<text x="848" y="901" font-size="12" font-weight="700" fill="#F7B26B">0.31×</text>
</g>
<g font-size="12" fill="#F2EDE8">
<text x="154" y="932" text-anchor="end">G: ext_rare</text>
<rect x="160" y="920" width="24.4" height="16" fill="#CE422B"/>
<rect x="160" y="938" width="76.1" height="16" fill="#9A8D82"/>
<text x="190" y="932" font-size="11" fill="#9A8D82">18 ms</text>
<text x="242" y="950" font-size="11" fill="#9A8D82">56 ms</text>
<text x="848" y="941" font-size="12" font-weight="700" fill="#F7B26B">0.32×</text>
</g>
<g font-size="12" fill="#F2EDE8">
<text x="154" y="972" text-anchor="end">G: ext_dll</text>
<rect x="160" y="960" width="24.4" height="16" fill="#CE422B"/>
<rect x="160" y="978" width="77.5" height="16" fill="#9A8D82"/>
<text x="190" y="972" font-size="11" fill="#9A8D82">18 ms</text>
<text x="243" y="990" font-size="11" fill="#9A8D82">57 ms</text>
<text x="848" y="981" font-size="12" font-weight="700" fill="#F7B26B">0.31×</text>
</g>
<g font-size="12" fill="#F2EDE8">
<text x="154" y="1012" text-anchor="end">G: ext_regex_alt</text>
<rect x="160" y="1000" width="23.1" height="16" fill="#CE422B"/>
<rect x="160" y="1018" width="80.2" height="16" fill="#9A8D82"/>
<text x="189" y="1012" font-size="11" fill="#9A8D82">17 ms</text>
<text x="246" y="1030" font-size="11" fill="#9A8D82">59 ms</text>
<text x="848" y="1021" font-size="12" font-weight="700" fill="#F7B26B">0.28×</text>
</g>
<g font-size="12" fill="#F2EDE8">
<text x="154" y="1052" text-anchor="end">G: substring</text>
<rect x="160" y="1040" width="23.1" height="16" fill="#CE422B"/>
<rect x="160" y="1058" width="77.5" height="16" fill="#9A8D82"/>
<text x="189" y="1052" font-size="11" fill="#9A8D82">17 ms</text>
<text x="243" y="1070" font-size="11" fill="#9A8D82">57 ms</text>
<text x="848" y="1061" font-size="12" font-weight="700" fill="#F7B26B">0.29×</text>
</g>
<g font-size="12" fill="#F2EDE8">
<text x="154" y="1092" text-anchor="end">C+D+F+G: exact</text>
<rect x="160" y="1080" width="28.5" height="16" fill="#CE422B"/>
<rect x="160" y="1098" width="99.2" height="16" fill="#9A8D82"/>
<text x="194" y="1092" font-size="11" fill="#9A8D82">21 ms</text>
<text x="265" y="1110" font-size="11" fill="#9A8D82">73 ms</text>
<text x="848" y="1101" font-size="12" font-weight="700" fill="#F7B26B">0.28×</text>
</g>
<g font-size="12" fill="#F2EDE8">
<text x="154" y="1132" text-anchor="end">C+D+F+G: prefix</text>
<rect x="160" y="1120" width="146.8" height="16" fill="#CE422B"/>
<rect x="160" y="1138" width="189.0" height="16" fill="#9A8D82"/>
<text x="312" y="1132" font-size="11" fill="#9A8D82">108 ms</text>
<text x="355" y="1150" font-size="11" fill="#9A8D82">139 ms</text>
<text x="848" y="1141" font-size="12" font-weight="700" fill="#F7B26B">0.77×</text>
</g>
<g font-size="12" fill="#F2EDE8">
<text x="154" y="1172" text-anchor="end">C+D+F+G: ext_rare</text>
<rect x="160" y="1160" width="27.2" height="16" fill="#CE422B"/>
<rect x="160" y="1178" width="57.1" height="16" fill="#9A8D82"/>
<text x="193" y="1172" font-size="11" fill="#9A8D82">20 ms</text>
<text x="223" y="1190" font-size="11" fill="#9A8D82">42 ms</text>
<text x="848" y="1181" font-size="12" font-weight="700" fill="#F7B26B">0.47×</text>
</g>
<g font-size="12" fill="#F2EDE8">
<text x="154" y="1212" text-anchor="end">C+D+F+G: ext_dll</text>
<rect x="160" y="1200" width="246.1" height="16" fill="#CE422B"/>
<rect x="160" y="1218" width="620.1" height="16" fill="#9A8D82"/>
<text x="412" y="1212" font-size="11" fill="#9A8D82">181 ms</text>
<text x="786" y="1230" font-size="11" fill="#9A8D82">456 ms</text>
<text x="848" y="1221" font-size="12" font-weight="700" fill="#F7B26B">0.39×</text>
</g>
<g font-size="12" fill="#F2EDE8">
<text x="154" y="1252" text-anchor="end">C+D+F+G: ext_regex_alt</text>
<rect x="160" y="1240" width="58.4" height="16" fill="#CE422B"/>
<rect x="160" y="1258" width="123.7" height="16" fill="#9A8D82"/>
<text x="224" y="1252" font-size="11" fill="#9A8D82">43 ms</text>
<text x="289" y="1270" font-size="11" fill="#9A8D82">91 ms</text>
<text x="848" y="1261" font-size="12" font-weight="700" fill="#F7B26B">0.47×</text>
</g>
<g font-size="12" fill="#F2EDE8">
<text x="154" y="1292" text-anchor="end">C+D+F+G: substring</text>
<rect x="160" y="1280" width="93.8" height="16" fill="#CE422B"/>
<rect x="160" y="1298" width="209.4" height="16" fill="#9A8D82"/>
<text x="259" y="1292" font-size="11" fill="#9A8D82">69 ms</text>
<text x="375" y="1310" font-size="11" fill="#9A8D82">154 ms</text>
<text x="848" y="1301" font-size="12" font-weight="700" fill="#F7B26B">0.44×</text>
</g>
<text x="480" y="1386" text-anchor="middle" font-size="10" fill="#9A8D82">Generated by the uffs-bench suite from cross-tool-summary.csv (HOT phase, file sink). Lower is better; ratio = UFFS ÷ rival.</text>
</svg>